HIERARCHY
ROOT Hips
{
	OFFSET -3.958830 18.904000 13.208200
	CHANNELS 6 Xposition Yposition Zposition Zrotation Yrotation Xrotation 
	JOINT LHipJoint
	{
		OFFSET 0.000000 0.000000 0.000000
		CHANNELS 3 Zrotation Yrotation Xrotation
		JOINT LeftUpLeg
		{
			OFFSET 1.800000 -1.400000 0.085000
			CHANNELS 3 Zrotation Yrotation Xrotation
			JOINT LeftLeg
			{
				OFFSET 2.215000 -6.000000 0.000000
				CHANNELS 3 Zrotation Yrotation Xrotation
				JOINT LeftFoot
				{
					OFFSET 2.500000 -6.900000 0.000000
					CHANNELS 3 Zrotation Yrotation Xrotation
					JOINT LeftToeBase
					{
						OFFSET 0.200000 -0.500000 1.950000
						CHANNELS 3 Zrotation Yrotation Xrotation
						End Site
						{
							OFFSET 0.000000 0.000000 0.000000
						}
					}
				}
			}
		}
	}
	JOINT RHipJoint
	{
		OFFSET 0.000000 0.000000 0.000000
		CHANNELS 3 Zrotation Yrotation Xrotation
		JOINT RightUpLeg
		{
			OFFSET -1.800000 -1.400000 0.085000
			CHANNELS 3 Zrotation Yrotation Xrotation
			JOINT RightLeg
			{
				OFFSET -2.215000 -6.000000 0.000000
				CHANNELS 3 Zrotation Yrotation Xrotation
				JOINT RightFoot
				{
					OFFSET -2.500000 -6.900000 0.000000
					CHANNELS 3 Zrotation Yrotation Xrotation
					JOINT RightToeBase
					{
						OFFSET -0.200000 -0.500000 1.950000
						CHANNELS 3 Zrotation Yrotation Xrotation
						End Site
						{
							OFFSET 0.000000 0.000000 0.000000
						}
					}
				}
			}
		}
	}
	JOINT LowerBack
	{
		OFFSET 0.000000 0.000000 0.000000
		CHANNELS 3 Zrotation Yrotation Xrotation
		JOINT Spine
		{
			OFFSET -0.087000 1.940000 -0.288900
			CHANNELS 3 Zrotation Yrotation Xrotation
			JOINT Spine1
			{
				OFFSET 0.000000 1.950000 0.060000
				CHANNELS 3 Zrotation Yrotation Xrotation
				JOINT Neck
				{
					OFFSET 0.000000 0.000000 0.000000
					CHANNELS 3 Zrotation Yrotation Xrotation
					JOINT Neck1
					{
						OFFSET 0.000000 1.600000 0.340000
						CHANNELS 3 Zrotation Yrotation Xrotation
						JOINT Head
						{
							OFFSET 0.000000 1.667000 -0.240000
							CHANNELS 3 Zrotation Yrotation Xrotation
							End Site
							{
								OFFSET 0.000000 0.000000 0.000000
							}
						}
					}
				}
				JOINT LeftShoulder
				{
					OFFSET 0.000000 0.000000 0.000000
					CHANNELS 3 Zrotation Yrotation Xrotation
					JOINT LeftArm
					{
						OFFSET 2.700000 1.550000 -0.730000
						CHANNELS 3 Zrotation Yrotation Xrotation
						JOINT LeftForeArm
						{
							OFFSET 5.450000 0.000000 0.000000
							CHANNELS 3 Zrotation Yrotation Xrotation
							JOINT LeftHand
							{
								OFFSET 3.450000 0.000000 0.000000
								CHANNELS 3 Zrotation Yrotation Xrotation
								JOINT LeftHandIndex1
								{
									OFFSET 0.750000 0.000000 0.000000
									CHANNELS 3 Zrotation Yrotation Xrotation
									End Site
									{
										OFFSET 0.000000 0.000000 0.000000
									}
								}
							}
						}
					}
				}
				JOINT RightShoulder
				{
					OFFSET 0.000000 0.000000 0.000000
					CHANNELS 3 Zrotation Yrotation Xrotation
					JOINT RightArm
					{
						OFFSET -2.700000 1.550000 -0.730000
						CHANNELS 3 Zrotation Yrotation Xrotation
						JOINT RightForeArm
						{
							OFFSET -5.450000 0.000000 0.000000
							CHANNELS 3 Zrotation Yrotation Xrotation
							JOINT RightHand
							{
								OFFSET -3.450000 0.000000 0.000000
								CHANNELS 3 Zrotation Yrotation Xrotation
								JOINT RightHandIndex1
								{
									OFFSET -0.750000 0.000000 0.000000
									CHANNELS 3 Zrotation Yrotation Xrotation
									End Site
									{
										OFFSET 0.000000 0.000000 0.000000
									}
								}
							}
						}
					}
				}
			}
		}
	}
}
MOTION
Frames: 9
Frame Time: 0.016667
-17.457370 17.120860 -0.975130 -3.194230 -19.709511 -8.006231 -14.935528 12.658141 3.654769 6.532626 -2.152624 -13.055883 -5.920940 1.989445 -9.476119 0.020100 3.098550 3.414679 0.645660 0.849210 0.115540 18.598120 -10.010378 3.227872 -6.656668 -4.535419 15.059695 12.835064 -6.223792 0.761253 -1.044862 -5.782870 2.274389 0.496570 0.119680 0.094440 -4.331413 -3.360629 -7.998106 14.573308 -2.050351 11.431663 -5.989398 1.479864 18.302931 -3.295028 -5.655515 -19.794013 -18.478239 17.211275 36.265062 23.834500 4.452340 -4.209090 -12.743088 -36.096475 1.677563 0.991434 -30.673908 -3.095293 7.916661 -20.850477 -0.808975 -3.462042 3.602332 0.079360 -0.106570 0.117310 0.253590 18.904186 32.285848 19.629094 -7.271148 -7.006503 0.831859 -8.238468 2.994992 -0.575074 2.832130 -1.618078 0.143700 0.021420 -0.272160 0.212030 
-17.460080 17.119470 -0.968140 -3.077945 -19.844354 -7.857853 -14.946913 12.677837 3.668564 6.444554 -2.180233 -13.101437 -5.774422 1.960983 -9.579801 0.018488 3.088441 3.412155 0.647560 0.849600 0.114230 18.581674 -10.005140 3.220327 -6.817503 -4.456518 14.839544 12.957350 -6.254028 0.903952 -1.039818 -5.769042 2.275543 0.495020 0.114530 0.100350 -4.285862 -3.408052 -8.015145 14.359584 -1.982924 11.528297 -5.755429 1.526431 17.873961 -3.268456 -5.868490 -19.755657 -18.911828 17.430034 35.928764 23.949640 4.462000 -4.352230 -12.941475 -35.664043 1.879670 0.810130 -30.574492 -3.097243 8.185292 -21.557308 -0.891774 -3.450031 3.613691 0.084600 -0.110670 0.122060 0.252330 19.164675 32.122794 19.498825 -7.687829 -7.625392 0.850739 -8.185868 3.761786 -0.574386 2.810312 -1.640448 0.147670 0.014560 -0.270200 0.212130 
-17.461850 17.116400 -0.963890 -2.876561 -19.969945 -7.730542 -14.954991 12.697811 3.669190 6.296087 -2.198407 -13.254702 -5.844012 1.982059 -9.409126 0.006493 3.087321 3.419054 0.619880 0.820270 0.096790 18.568510 -10.002735 3.224118 -6.961778 -4.353244 14.657660 12.937592 -6.218895 0.836644 -1.019530 -5.754663 2.283054 0.485700 0.135540 0.092870 -4.249992 -3.439611 -8.027373 14.039238 -1.890559 11.566659 -5.637424 1.618014 17.718827 -3.255816 -5.906370 -19.770933 -18.796629 17.508529 35.567126 23.914600 4.506930 -4.117880 -13.013332 -35.509468 1.986730 1.092210 -30.151831 -3.224984 8.092299 -22.130950 -0.865110 -3.462546 3.603582 0.079340 -0.098510 0.104860 0.242900 19.275210 32.089302 19.475131 -7.832647 -7.816493 0.859537 -8.190884 3.721753 -0.571748 2.808457 -1.627177 0.130930 0.028580 -0.250460 0.211080 
-17.463540 17.113330 -0.960690 -2.825857 -20.107893 -7.602358 -14.952368 12.709851 3.652372 6.282816 -2.192157 -13.429732 -5.869715 2.017296 -9.070241 -0.004081 3.059498 3.427777 0.623240 0.823760 0.106400 18.566271 -10.003594 3.245155 -7.099931 -4.314287 14.619029 13.132501 -6.182527 0.512668 -1.025529 -5.750674 2.284485 0.486800 0.130330 0.088790 -4.248865 -3.442751 -8.030338 14.001737 -1.912216 11.692444 -5.698027 1.666277 17.616376 -3.264088 -5.942335 -19.902385 -18.834192 17.617935 35.370002 24.005950 4.650800 -4.410080 -12.754729 -35.282933 2.090983 1.399770 -29.675419 -3.292457 8.003685 -22.424953 -0.821226 -3.452634 3.593169 0.087560 -0.103800 0.110780 0.239410 19.094458 31.942998 19.482189 -7.575640 -8.122518 0.842982 -8.519068 4.047403 -0.571953 2.807659 -1.627839 0.128650 0.034610 -0.253280 0.206880 
-17.460990 17.113340 -0.949480 -2.617707 -20.028578 -7.506945 -14.952051 12.713201 3.657404 5.944259 -2.233583 -13.453850 -5.855405 2.000815 -9.076845 0.012546 3.008633 3.443510 0.632940 0.839610 0.117190 18.562484 -10.004448 3.254495 -7.467275 -4.247282 14.559412 13.510896 -6.206296 0.348505 -1.036501 -5.757657 2.282058 0.485710 0.109830 0.081390 -4.243654 -3.440783 -8.050981 13.909484 -1.945648 11.678059 -5.884583 1.702833 17.342013 -3.117133 -5.904805 -20.049874 -18.868280 17.774021 35.725438 24.124510 4.799090 -4.334950 -12.957844 -35.076001 2.309953 1.472687 -29.207914 -3.404302 7.851260 -23.438967 -0.750441 -3.415427 3.609358 0.089680 -0.118570 0.124450 0.243170 19.058453 31.861500 19.465361 -7.296236 -7.947027 0.818551 -8.652424 3.755684 -0.560095 2.832764 -1.620531 0.138590 0.025550 -0.270950 0.207040 
-17.464780 17.114800 -0.940980 -2.598374 -20.085056 -7.373184 -14.952368 12.707177 3.691969 5.901770 -2.276155 -13.414969 -5.867843 1.957585 -9.416548 0.022864 3.018913 3.441355 0.628580 0.821110 0.139520 18.556820 -10.000719 3.261897 -7.478306 -4.220191 14.518949 13.507277 -6.194655 0.299360 -1.041337 -5.730422 2.284674 0.470850 0.090890 0.078490 -4.231661 -3.439200 -8.096029 13.961311 -1.966488 11.796379 -5.981273 1.751698 16.905058 -2.905603 -5.909546 -20.288124 -19.143495 17.964390 36.357832 24.208500 4.908880 -4.293050 -13.294963 -34.827662 2.583529 1.446727 -28.716411 -3.425218 7.850646 -23.874097 -0.737879 -3.396119 3.590640 0.111590 -0.133260 0.138470 0.231220 19.083827 31.810752 19.470318 -7.141379 -7.951211 0.759376 -8.757388 3.543191 -0.522228 2.853957 -1.595801 0.133530 0.020440 -0.276070 0.192610 
-17.463380 17.115630 -0.934580 -2.597754 -20.105889 -7.116530 -14.950719 12.679457 3.703808 5.841329 -2.326058 -13.579817 -5.966083 1.924666 -9.589946 0.002569 3.016976 3.440491 0.638170 0.833420 0.146360 18.564054 -9.997111 3.250518 -7.410585 -4.158069 14.302011 13.355838 -6.144533 0.312560 -1.039282 -5.699443 2.295890 0.483320 0.088030 0.066120 -4.251130 -3.407126 -8.083705 14.123828 -1.930624 11.701925 -6.111835 1.837463 16.587834 -2.918321 -6.011232 -20.171651 -19.235037 18.244185 35.957239 24.271130 5.206050 -4.728930 -13.388810 -34.462942 2.660459 1.417329 -28.564416 -3.345407 7.686397 -24.448551 -0.695763 -3.384051 3.580798 0.123300 -0.139420 0.137830 0.231050 19.227103 31.552863 19.307678 -7.109494 -7.733275 0.748016 -8.860109 3.019155 -0.520311 2.856651 -1.576923 0.122970 0.036250 -0.274720 0.184400 
-17.466060 17.114350 -0.930610 -2.303338 -20.116083 -6.989491 -14.959725 12.666355 3.695164 5.537926 -2.383506 -13.745929 -6.012179 1.910679 -9.558235 -0.012540 3.012156 3.449879 0.632250 0.833660 0.131120 18.563357 -9.985081 3.236179 -7.589318 -4.021175 14.105533 13.215255 -6.077851 0.232170 -1.023663 -5.694466 2.301019 0.495420 0.114770 0.064700 -4.244603 -3.411841 -8.053735 13.751992 -1.804781 11.451412 -6.067709 1.967919 16.880049 -3.160893 -6.087738 -20.133624 -19.045072 18.296683 35.022138 24.253860 5.283760 -4.783920 -12.717431 -34.231450 2.736146 1.505440 -28.191662 -3.376125 7.813892 -25.042481 -0.741655 -3.396591 3.580199 0.109200 -0.123200 0.122390 0.236580 19.039216 31.389063 19.234793 -6.716168 -7.273246 0.699209 -9.347487 2.153947 -0.532093 2.877337 -1.565889 0.112660 0.055400 -0.265070 0.192390 
-17.469120 17.115440 -0.927600 -2.136079 -20.220322 -6.847092 -14.964069 12.664374 3.687523 5.370906 -2.417595 -13.879675 -5.877760 1.896468 -9.540478 -0.013438 2.982879 3.464997 0.638900 0.845520 0.132380 18.562101 -9.982098 3.226537 -7.714733 -3.902521 13.840608 13.123530 -6.023045 0.208677 -1.013031 -5.677346 2.313101 0.502280 0.120570 0.060410 -4.240796 -3.410557 -8.034168 13.590120 -1.697111 11.287651 -6.083243 2.092518 16.953831 -3.244381 -6.134073 -20.174635 -19.030817 18.515136 34.582986 24.155230 5.527070 -4.592420 -12.252372 -33.998209 2.831445 1.530238 -27.938496 -3.338065 7.719977 -25.555255 -0.700580 -3.389298 3.590698 0.098110 -0.116810 0.115010 0.242120 18.764849 31.257047 19.188273 -6.318731 -6.968570 0.665914 -9.712259 1.617087 -0.540933 2.896987 -1.568893 0.114110 0.057260 -0.272140 0.195340 
